HIERARCHY
ROOT Hips
{
	OFFSET 0.00000 0.00000 0.00000
	CHANNELS 6 Xposition Yposition Zposition Zrotation Yrotation Xrotation 
	JOINT LHipJoint
	{
		OFFSET 0 0 0
		CHANNELS 3 Zrotation Yrotation Xrotation
		JOINT LeftHip
		{
			OFFSET 1.57358 -1.76629 0.73362
			CHANNELS 3 Zrotation Yrotation Xrotation
			JOINT LeftKnee
			{
				OFFSET 2.40600 -6.61045 0.00000
				CHANNELS 3 Zrotation Yrotation Xrotation
				JOINT LeftAnkle
				{
					OFFSET 2.66168 -7.31291 0.00000
					CHANNELS 3 Zrotation Yrotation Xrotation
					JOINT LeftToe
					{
						OFFSET 0.20870 -0.57341 2.12506
						CHANNELS 3 Zrotation Yrotation Xrotation
						End Site
						{
							OFFSET 0.00000 -0.00000 1.10557
						}
					}
				}
			}
		}
	}
	JOINT RHipJoint
	{
		OFFSET 0 0 0
		CHANNELS 3 Zrotation Yrotation Xrotation
		JOINT RightHip
		{
			OFFSET -1.49299 -1.76629 0.73362
			CHANNELS 3 Zrotation Yrotation Xrotation
			JOINT RightKnee
			{
				OFFSET -2.43663 -6.69460 0.00000
				CHANNELS 3 Zrotation Yrotation Xrotation
				JOINT RightAnkle
				{
					OFFSET -2.62959 -7.22474 0.00000
					CHANNELS 3 Zrotation Yrotation Xrotation
					JOINT RightToe
					{
						OFFSET -0.25784 -0.70841 2.21862
						CHANNELS 3 Zrotation Yrotation Xrotation
						End Site
						{
							OFFSET -0.00000 -0.00000 1.16452
						}
					}
				}
			}
		}
	}
	JOINT lowerback
	{
		OFFSET 0 0 0
		CHANNELS 3 Zrotation Yrotation Xrotation
		JOINT Chest
		{
			OFFSET -0.00034 2.12399 -0.25450
			CHANNELS 3 Zrotation Yrotation Xrotation
			JOINT Chest2
			{
				OFFSET 0.05594 2.14379 -0.03318
				CHANNELS 3 Zrotation Yrotation Xrotation
				JOINT lowerneck
				{
					OFFSET 0 0 0
					CHANNELS 3 Zrotation Yrotation Xrotation
					JOINT Neck
					{
						OFFSET -0.09835 1.62725 0.24211
						CHANNELS 3 Zrotation Yrotation Xrotation
						JOINT Head
						{
							OFFSET 0.10849 1.66041 -0.22648
							CHANNELS 3 Zrotation Yrotation Xrotation
							End Site
							{
								OFFSET 0.04385 1.68267 -0.10541
							}
						}
					}
				}
				JOINT LeftCollar
				{
					OFFSET 0 0 0
					CHANNELS 3 Zrotation Yrotation Xrotation
					JOINT LeftShoulder
					{
						OFFSET 3.29108 0.79398 -0.68179
CHANNELS 3 Zrotation Xrotation Yrotation
						JOINT LeftElbow
						{
OFFSET 0 -5.153100 -0.000000
CHANNELS 3 Zrotation Xrotation Yrotation
							JOINT LeftWrist
							{
OFFSET 0 -3.751380 -0.000000
CHANNELS 3 Zrotation Xrotation Yrotation
								JOINT lhand
								{
									OFFSET 0 0 0
CHANNELS 3 Zrotation Xrotation Yrotation
									JOINT LFingers
									{
OFFSET 0 -0.529170 0.000000
CHANNELS 3 Zrotation Xrotation Yrotation
										End Site
										{
OFFSET 0 -0.426630 0.000000
										}
									}
								}
								JOINT LThumb
								{
OFFSET 0 0.000000 0.000000
CHANNELS 3 Zrotation Xrotation Yrotation
									End Site
									{
OFFSET 0 -0.433150 0.433150
									}
								}
							}
						}
					}
				}
				JOINT RightCollar
				{
					OFFSET 0 0 0
					CHANNELS 3 Zrotation Yrotation Xrotation
					JOINT RightShoulder
					{
						OFFSET -3.07414 1.06285 -0.44338
CHANNELS 3 Zrotation Xrotation Yrotation
						JOINT RightElbow
						{
OFFSET 0 -5.296130 0.000000
CHANNELS 3 Zrotation Xrotation Yrotation
							JOINT RightWrist
							{
OFFSET 0 -3.761440 -0.000000
CHANNELS 3 Zrotation Xrotation Yrotation
								JOINT rhand
								{
									OFFSET 0 0 0
CHANNELS 3 Zrotation Xrotation Yrotation
									JOINT RFingers
									{
OFFSET 0 -0.747320 0.000000
CHANNELS 3 Zrotation Xrotation Yrotation
										End Site
										{
OFFSET 0 -0.602510 0.000000
										}
									}
								}
								JOINT RThumb
								{
OFFSET 0 0.000000 0.000000
CHANNELS 3 Zrotation Xrotation Yrotation
									End Site
									{
OFFSET 0 -0.611710 0.611710
									}
								}
							}
						}
					}
				}
			}
		}
	}
}
MOTION
Frames: 9
Frame Time: 0.008333333333333333
-5.662112 15.477248 3.471887 -16.274569 43.774017 -16.440998 0.000000 0.000000 0.000000 -36.871334 5.339637 -37.649269 6.889112 15.237560 48.453260 -0.062879 -4.517898 1.760852 2.484273 9.809035 28.360728 0.000000 0.000000 0.000000 7.773654 4.147788 11.571011 -5.131497 -13.529075 41.385218 0.537423 13.714147 10.229350 -2.016065 8.891975 -25.462854 6.356781 2.573670 19.945728 9.275137 5.724690 4.312347 5.011373 2.866574 -6.838892 -7.588682 -13.315248 -3.860489 6.080905 -18.134560 14.356692 1.741940 -8.785377 6.244486 0.000000 0.000000 0.000000 6.749035 44.936981 -42.890711 116.114001 -57.254814 82.406395 24.479627 -42.955633 -8.409710 0.000000 0.000000 0.000000 -7.125000 0.000000 0.000000 -2.083032 39.199727 -0.301452 0.000000 0.000000 0.000000 -13.574551 -3.507681 54.571400 -101.173617 -59.522890 -69.661122 -12.582495 -16.917148 -28.863231 0.000000 0.000000 0.000000 7.125000 0.000000 0.000000 10.561343 0.958063 10.566570
-5.592336 15.479344 3.558260 -16.210708 43.947252 -16.325594 0.000000 0.000000 0.000000 -37.085803 5.732710 -37.264006 6.830937 15.187281 48.230981 -0.065836 -4.723494 1.099355 2.507819 9.851705 28.498185 0.000000 0.000000 0.000000 7.858563 4.745165 11.615634 -5.233491 -13.639425 41.816855 0.581069 14.295042 10.834049 -1.892994 8.624126 -24.636163 5.924943 2.521409 19.383584 9.393211 5.497271 4.514842 5.465120 2.775721 -6.354076 -7.598646 -13.248343 -4.097068 6.013914 -18.021080 14.365077 1.717820 -8.730130 6.273459 0.000000 0.000000 0.000000 6.121106 44.694343 -41.972134 116.877004 -57.076841 83.046585 23.917282 -43.031899 -8.258729 0.000000 0.000000 0.000000 -7.125000 0.000000 0.000000 -2.554496 38.992782 -0.385557 0.000000 0.000000 0.000000 -13.858854 -3.620443 54.732001 -101.283450 -59.513271 -69.755765 -12.116085 -16.345844 -29.013293 0.000000 0.000000 0.000000 7.125000 0.000000 0.000000 10.842430 0.874389 10.875711
-5.522559 15.481440 3.644633 -16.146847 44.120487 -16.210191 0.000000 0.000000 0.000000 -37.300272 6.125783 -36.878743 6.772761 15.137002 48.008702 -0.068794 -4.929090 0.437859 2.531365 9.894374 28.635641 0.000000 0.000000 0.000000 7.943472 5.342542 11.660256 -5.335485 -13.749775 42.248492 0.624715 14.875937 11.438748 -1.769924 8.356277 -23.809472 5.493106 2.469149 18.821439 9.511285 5.269852 4.717337 5.918867 2.684868 -5.869260 -7.608610 -13.181438 -4.333647 5.946923 -17.907601 14.373462 1.693699 -8.674883 6.302432 0.000000 0.000000 0.000000 5.493177 44.451706 -41.053556 117.640006 -56.898868 83.686776 23.354937 -43.108164 -8.107748 0.000000 0.000000 0.000000 -7.125000 0.000000 0.000000 -3.025959 38.785836 -0.469662 0.000000 0.000000 0.000000 -14.143156 -3.733205 54.892601 -101.393283 -59.503652 -69.850408 -11.649675 -15.774540 -29.163355 0.000000 0.000000 0.000000 7.125000 0.000000 0.000000 11.123516 0.790715 11.184851
-5.452858 15.483488 3.730929 -16.082778 44.293709 -16.094737 0.000000 0.000000 0.000000 -37.514527 6.520114 -36.494804 6.715823 15.087795 47.791158 -0.071722 -5.136570 -0.220247 2.555819 9.938593 28.778172 0.000000 0.000000 0.000000 8.028204 5.939026 11.704132 -5.437911 -13.860454 42.681686 0.668561 15.453783 12.030327 -1.649289 8.093768 -22.999236 5.068771 2.418282 18.272261 9.624257 5.047605 4.910344 6.360895 2.595993 -5.400880 -7.618076 -13.116733 -4.562017 5.881665 -17.798079 14.386183 1.670075 -8.621478 6.331808 0.000000 0.000000 0.000000 4.885565 44.218607 -40.149781 118.405595 -56.719766 84.329026 22.781977 -43.187840 -7.958482 0.000000 0.000000 0.000000 -7.125000 0.000000 0.000000 -3.506551 38.580083 -0.555485 0.000000 0.000000 0.000000 -14.418660 -3.828147 55.047958 -101.507736 -59.493584 -69.949028 -11.189049 -15.208637 -29.310751 0.000000 0.000000 0.000000 7.125000 0.000000 0.000000 11.401059 0.708861 11.489952
-5.387360 15.482828 3.812881 -16.007001 44.466226 -15.976433 0.000000 0.000000 0.000000 -37.716735 6.985318 -36.185434 6.728630 15.098994 47.840346 -0.072956 -5.450190 -0.687346 2.631424 10.070048 29.206593 0.000000 0.000000 0.000000 8.102977 6.485205 11.705970 -5.564686 -13.989698 43.202625 0.723664 15.859864 11.882791 -1.665857 8.132044 -23.115990 5.067135 2.445934 18.453478 9.449817 5.116663 4.568842 6.142722 2.618505 -5.858418 -7.599498 -13.175942 -4.327907 5.914055 -17.911559 14.643207 1.674353 -8.671844 6.383838 0.000000 0.000000 0.000000 5.422469 44.522895 -40.079890 119.316937 -56.477043 85.087290 21.611056 -43.459594 -7.905848 0.000000 0.000000 0.000000 -7.125000 0.000000 0.000000 -4.501366 38.441507 -0.738110 0.000000 0.000000 0.000000 -14.198506 -2.919217 54.907975 -101.882460 -59.458265 -70.271693 -11.054234 -14.947019 -29.307966 0.000000 0.000000 0.000000 7.125000 0.000000 0.000000 11.478961 0.729535 11.567481
-5.321862 15.482168 3.894832 -15.931223 44.638743 -15.858129 0.000000 0.000000 0.000000 -37.918942 7.450522 -35.876063 6.741437 15.110193 47.889534 -0.074191 -5.763810 -1.154445 2.707029 10.201503 29.635014 0.000000 0.000000 0.000000 8.177749 7.031384 11.707808 -5.691460 -14.118942 43.723564 0.778767 16.265944 11.735256 -1.682426 8.170321 -23.232743 5.065498 2.473586 18.634695 9.275376 5.185721 4.227340 5.924549 2.641017 -6.315955 -7.580919 -13.235151 -4.093798 5.946445 -18.025039 14.900230 1.678632 -8.722209 6.435869 0.000000 0.000000 0.000000 5.959373 44.827183 -40.009999 120.228279 -56.234319 85.845554 20.440135 -43.731348 -7.853215 0.000000 0.000000 0.000000 -7.125000 0.000000 0.000000 -5.496181 38.302930 -0.920734 0.000000 0.000000 0.000000 -13.978352 -2.010287 54.767992 -102.257185 -59.422946 -70.594358 -10.919419 -14.685401 -29.305181 0.000000 0.000000 0.000000 7.125000 0.000000 0.000000 11.556864 0.750210 11.645011
-5.256364 15.481507 3.976783 -15.855445 44.811260 -15.739825 0.000000 0.000000 0.000000 -38.121150 7.915726 -35.566693 6.754243 15.121391 47.938722 -0.075426 -6.077430 -1.621545 2.782635 10.332958 30.063435 0.000000 0.000000 0.000000 8.252522 7.577563 11.709645 -5.818235 -14.248186 44.244503 0.833871 16.672025 11.587721 -1.698994 8.208597 -23.349496 5.063861 2.501239 18.815913 9.100935 5.254780 3.885838 5.706376 2.663529 -6.773492 -7.562341 -13.294361 -3.859688 5.978835 -18.138519 15.157254 1.682910 -8.772574 6.487900 0.000000 0.000000 0.000000 6.496277 45.131471 -39.940108 121.139620 -55.991595 86.603819 19.269214 -44.003103 -7.800581 0.000000 0.000000 0.000000 -7.125000 0.000000 0.000000 -6.490995 38.164354 -1.103358 0.000000 0.000000 0.000000 -13.758197 -1.101358 54.628009 -102.631910 -59.387627 -70.917023 -10.784605 -14.423783 -29.302395 0.000000 0.000000 0.000000 7.125000 0.000000 0.000000 11.634766 0.770884 11.722540
-5.190636 15.482198 4.060163 -15.826589 44.977756 -15.649951 0.000000 0.000000 0.000000 -38.253997 8.401864 -35.306180 6.787754 15.150283 48.066624 -0.082635 -6.555852 -2.027408 2.867179 10.474443 30.529715 0.000000 0.000000 0.000000 8.372911 8.086666 11.687323 -5.958080 -14.385141 44.808539 0.850807 16.727231 11.226098 -1.703567 8.219227 -23.381883 4.944729 2.502535 18.786820 9.006299 5.237536 3.702103 5.673017 2.652682 -6.957087 -7.561211 -13.317108 -3.787784 6.013344 -18.189012 15.328345 1.687572 -8.791838 6.537289 0.000000 0.000000 0.000000 6.829814 45.185562 -39.671549 122.066674 -55.724696 87.370623 18.543779 -44.199383 -7.794700 0.000000 0.000000 0.000000 -7.125000 0.000000 0.000000 -7.110039 38.106842 -1.214026 0.000000 0.000000 0.000000 -13.646723 -0.452609 54.582974 -102.927228 -59.358744 -71.171187 -10.845155 -14.241939 -29.260138 0.000000 0.000000 0.000000 7.125000 0.000000 0.000000 11.597016 0.804352 11.676230
-5.124707 15.484065 4.144784 -15.838535 45.139017 -15.584797 0.000000 0.000000 0.000000 -38.326530 8.906206 -35.088150 6.839268 15.194561 48.262974 -0.095040 -7.177578 -2.380022 2.959496 10.624648 31.028917 0.000000 0.000000 0.000000 8.532965 8.563528 11.643993 -6.109291 -14.528799 45.410051 0.834554 16.477329 10.678311 -1.697709 8.205818 -23.340907 4.723426 2.480913 18.574850 8.981059 5.145248 3.655557 5.800366 2.612826 -6.902472 -7.575252 -13.308149 -3.856929 6.049697 -18.184733 15.424711 1.692569 -8.784056 6.584380 0.000000 0.000000 0.000000 6.986509 45.022090 -39.230235 123.007390 -55.436775 88.144853 18.205723 -44.330034 -7.829473 0.000000 0.000000 0.000000 -7.125000 0.000000 0.000000 -7.402324 38.119821 -1.262123 0.000000 0.000000 0.000000 -13.629753 -0.030103 54.620504 -103.153499 -59.335456 -71.365786 -11.075589 -14.129464 -29.183556 0.000000 0.000000 0.000000 7.125000 0.000000 0.000000 11.458698 0.848946 11.522234
